<mxfile host="app.diagrams.net" agent="Mozilla/5.0 (Windows NT 10.0; Win64; x64) AppleWebKit/537.36 (KHTML, like Gecko) Chrome/140.0.0.0 Safari/537.36" version="28.2.3">
  <diagram name="Página-1" id="AmDmr762F7mt9OA27FJe">
    <mxGraphModel dx="3206" dy="1127" grid="1" gridSize="10" guides="1" tooltips="1" connect="1" arrows="1" fold="1" page="1" pageScale="1" pageWidth="827" pageHeight="1169" math="0" shadow="0">
      <root>
        <mxCell id="0" />
        <mxCell id="1" parent="0" />
        <mxCell id="OqhiQJWQzmeeSXiI8pkJ-2" value="2) Crear la clase Vehiculo que contenga marca, modelo y anio. Debe tener los métodos:&lt;br/&gt;CambiarMarcha() (simplemente un texto que informe el cambio de marcha)&lt;br/&gt;MostrarInformacion()&lt;br/&gt;Luego, crear tres clases que hereden de Vehiculo&lt;br/&gt;Auto&lt;br/&gt;Camioneta&lt;br/&gt;Moto&lt;br/&gt;Agregar propiedades específicas:&lt;br/&gt;Auto: CantidadPuertas, esAutomatico (booleano)&lt;br/&gt;Moto: TipoManubrio&lt;br/&gt;Camioneta: cantidadPuertas, es4x4 (booleano).&lt;br/&gt;Se deben instanciar en el Main, creando un objeto de cada clase hija y llamar a sus métodos. " style="text;html=1;align=left;verticalAlign=middle;resizable=0;points=[];autosize=1;strokeColor=none;fillColor=none;" parent="1" vertex="1">
          <mxGeometry x="-230" y="260" width="520" height="190" as="geometry" />
        </mxCell>
        <mxCell id="OqhiQJWQzmeeSXiI8pkJ-3" value="&lt;span style=&quot;font-weight: 400;&quot;&gt;Vehiculo&lt;/span&gt;" style="swimlane;fontStyle=1;align=center;verticalAlign=top;childLayout=stackLayout;horizontal=1;startSize=26;horizontalStack=0;resizeParent=1;resizeParentMax=0;resizeLast=0;collapsible=1;marginBottom=0;whiteSpace=wrap;html=1;" parent="1" vertex="1">
          <mxGeometry x="70" y="520" width="290" height="216" as="geometry" />
        </mxCell>
        <mxCell id="OqhiQJWQzmeeSXiI8pkJ-4" value="+ marca: string" style="text;strokeColor=none;fillColor=none;align=left;verticalAlign=top;spacingLeft=4;spacingRight=4;overflow=hidden;rotatable=0;points=[[0,0.5],[1,0.5]];portConstraint=eastwest;whiteSpace=wrap;html=1;" parent="OqhiQJWQzmeeSXiI8pkJ-3" vertex="1">
          <mxGeometry y="26" width="290" height="26" as="geometry" />
        </mxCell>
        <mxCell id="OqhiQJWQzmeeSXiI8pkJ-5" value="+&amp;nbsp;&lt;span style=&quot;text-wrap-mode: nowrap;&quot;&gt;modelo&lt;/span&gt;: string" style="text;strokeColor=none;fillColor=none;align=left;verticalAlign=top;spacingLeft=4;spacingRight=4;overflow=hidden;rotatable=0;points=[[0,0.5],[1,0.5]];portConstraint=eastwest;whiteSpace=wrap;html=1;" parent="OqhiQJWQzmeeSXiI8pkJ-3" vertex="1">
          <mxGeometry y="52" width="290" height="26" as="geometry" />
        </mxCell>
        <mxCell id="OqhiQJWQzmeeSXiI8pkJ-6" value="+&amp;nbsp;&lt;span style=&quot;text-wrap-mode: nowrap;&quot;&gt;anio&lt;/span&gt;: DateTime" style="text;strokeColor=none;fillColor=none;align=left;verticalAlign=top;spacingLeft=4;spacingRight=4;overflow=hidden;rotatable=0;points=[[0,0.5],[1,0.5]];portConstraint=eastwest;whiteSpace=wrap;html=1;" parent="OqhiQJWQzmeeSXiI8pkJ-3" vertex="1">
          <mxGeometry y="78" width="290" height="26" as="geometry" />
        </mxCell>
        <mxCell id="OqhiQJWQzmeeSXiI8pkJ-7" value="" style="line;strokeWidth=1;fillColor=none;align=left;verticalAlign=middle;spacingTop=-1;spacingLeft=3;spacingRight=3;rotatable=0;labelPosition=right;points=[];portConstraint=eastwest;strokeColor=inherit;" parent="OqhiQJWQzmeeSXiI8pkJ-3" vertex="1">
          <mxGeometry y="104" width="290" height="8" as="geometry" />
        </mxCell>
        <mxCell id="OqhiQJWQzmeeSXiI8pkJ-8" value="+&amp;nbsp;&lt;span style=&quot;text-wrap-mode: nowrap;&quot;&gt;Vehiculo&lt;/span&gt;(): void" style="text;strokeColor=none;fillColor=none;align=left;verticalAlign=top;spacingLeft=4;spacingRight=4;overflow=hidden;rotatable=0;points=[[0,0.5],[1,0.5]];portConstraint=eastwest;whiteSpace=wrap;html=1;" parent="OqhiQJWQzmeeSXiI8pkJ-3" vertex="1">
          <mxGeometry y="112" width="290" height="26" as="geometry" />
        </mxCell>
        <mxCell id="OqhiQJWQzmeeSXiI8pkJ-9" value="+&amp;nbsp;&lt;span style=&quot;text-wrap-mode: nowrap;&quot;&gt;Vehiculo&lt;/span&gt;(marca: String, modelo: String, anio: int)" style="text;strokeColor=none;fillColor=none;align=left;verticalAlign=top;spacingLeft=4;spacingRight=4;overflow=hidden;rotatable=0;points=[[0,0.5],[1,0.5]];portConstraint=eastwest;whiteSpace=wrap;html=1;" parent="OqhiQJWQzmeeSXiI8pkJ-3" vertex="1">
          <mxGeometry y="138" width="290" height="26" as="geometry" />
        </mxCell>
        <mxCell id="OqhiQJWQzmeeSXiI8pkJ-10" value="+&amp;nbsp;&lt;span style=&quot;text-wrap-mode: nowrap;&quot;&gt;CambiarMarcha&lt;/span&gt;(): void" style="text;strokeColor=none;fillColor=none;align=left;verticalAlign=top;spacingLeft=4;spacingRight=4;overflow=hidden;rotatable=0;points=[[0,0.5],[1,0.5]];portConstraint=eastwest;whiteSpace=wrap;html=1;" parent="OqhiQJWQzmeeSXiI8pkJ-3" vertex="1">
          <mxGeometry y="164" width="290" height="26" as="geometry" />
        </mxCell>
        <mxCell id="OqhiQJWQzmeeSXiI8pkJ-11" value="+&amp;nbsp;&lt;span style=&quot;text-wrap-mode: nowrap;&quot;&gt;MostrarInformacion()&lt;/span&gt;: void" style="text;strokeColor=none;fillColor=none;align=left;verticalAlign=top;spacingLeft=4;spacingRight=4;overflow=hidden;rotatable=0;points=[[0,0.5],[1,0.5]];portConstraint=eastwest;whiteSpace=wrap;html=1;" parent="OqhiQJWQzmeeSXiI8pkJ-3" vertex="1">
          <mxGeometry y="190" width="290" height="26" as="geometry" />
        </mxCell>
        <mxCell id="OqhiQJWQzmeeSXiI8pkJ-74" value="&lt;span style=&quot;font-weight: 400;&quot;&gt;Auto&lt;/span&gt;" style="swimlane;fontStyle=1;align=center;verticalAlign=top;childLayout=stackLayout;horizontal=1;startSize=26;horizontalStack=0;resizeParent=1;resizeParentMax=0;resizeLast=0;collapsible=1;marginBottom=0;whiteSpace=wrap;html=1;" parent="1" vertex="1">
          <mxGeometry x="-220" y="780" width="290" height="170" as="geometry" />
        </mxCell>
        <mxCell id="OqhiQJWQzmeeSXiI8pkJ-75" value="+&amp;nbsp;&lt;span style=&quot;text-wrap-mode: nowrap;&quot;&gt;cantidadPuertas&lt;/span&gt;: int" style="text;strokeColor=none;fillColor=none;align=left;verticalAlign=top;spacingLeft=4;spacingRight=4;overflow=hidden;rotatable=0;points=[[0,0.5],[1,0.5]];portConstraint=eastwest;whiteSpace=wrap;html=1;" parent="OqhiQJWQzmeeSXiI8pkJ-74" vertex="1">
          <mxGeometry y="26" width="290" height="26" as="geometry" />
        </mxCell>
        <mxCell id="OqhiQJWQzmeeSXiI8pkJ-76" value="+&amp;nbsp;&lt;span style=&quot;text-wrap-mode: nowrap;&quot;&gt;esAutomatico&lt;/span&gt;: Boolean" style="text;strokeColor=none;fillColor=none;align=left;verticalAlign=top;spacingLeft=4;spacingRight=4;overflow=hidden;rotatable=0;points=[[0,0.5],[1,0.5]];portConstraint=eastwest;whiteSpace=wrap;html=1;" parent="OqhiQJWQzmeeSXiI8pkJ-74" vertex="1">
          <mxGeometry y="52" width="290" height="26" as="geometry" />
        </mxCell>
        <mxCell id="OqhiQJWQzmeeSXiI8pkJ-77" value="" style="line;strokeWidth=1;fillColor=none;align=left;verticalAlign=middle;spacingTop=-1;spacingLeft=3;spacingRight=3;rotatable=0;labelPosition=right;points=[];portConstraint=eastwest;strokeColor=inherit;" parent="OqhiQJWQzmeeSXiI8pkJ-74" vertex="1">
          <mxGeometry y="78" width="290" height="8" as="geometry" />
        </mxCell>
        <mxCell id="OqhiQJWQzmeeSXiI8pkJ-78" value="+ &lt;span style=&quot;text-wrap-mode: nowrap;&quot;&gt;Auto&lt;/span&gt;(): void" style="text;strokeColor=none;fillColor=none;align=left;verticalAlign=top;spacingLeft=4;spacingRight=4;overflow=hidden;rotatable=0;points=[[0,0.5],[1,0.5]];portConstraint=eastwest;whiteSpace=wrap;html=1;" parent="OqhiQJWQzmeeSXiI8pkJ-74" vertex="1">
          <mxGeometry y="86" width="290" height="26" as="geometry" />
        </mxCell>
        <mxCell id="OqhiQJWQzmeeSXiI8pkJ-79" value="+&amp;nbsp;&lt;span style=&quot;text-wrap-mode: nowrap;&quot;&gt;CantidadPuertas&lt;/span&gt;(): void" style="text;strokeColor=none;fillColor=none;align=left;verticalAlign=top;spacingLeft=4;spacingRight=4;overflow=hidden;rotatable=0;points=[[0,0.5],[1,0.5]];portConstraint=eastwest;whiteSpace=wrap;html=1;" parent="OqhiQJWQzmeeSXiI8pkJ-74" vertex="1">
          <mxGeometry y="112" width="290" height="26" as="geometry" />
        </mxCell>
        <mxCell id="OqhiQJWQzmeeSXiI8pkJ-80" value="+&amp;nbsp;&lt;span style=&quot;text-wrap-mode: nowrap;&quot;&gt;esAutomatico&lt;/span&gt;&lt;span style=&quot;text-wrap-mode: nowrap;&quot;&gt;()&lt;/span&gt;: boolean" style="text;strokeColor=none;fillColor=none;align=left;verticalAlign=top;spacingLeft=4;spacingRight=4;overflow=hidden;rotatable=0;points=[[0,0.5],[1,0.5]];portConstraint=eastwest;whiteSpace=wrap;html=1;" parent="OqhiQJWQzmeeSXiI8pkJ-74" vertex="1">
          <mxGeometry y="138" width="290" height="32" as="geometry" />
        </mxCell>
        <mxCell id="OqhiQJWQzmeeSXiI8pkJ-81" value="&lt;span style=&quot;font-weight: 400;&quot;&gt;Moto&lt;/span&gt;" style="swimlane;fontStyle=1;align=center;verticalAlign=top;childLayout=stackLayout;horizontal=1;startSize=26;horizontalStack=0;resizeParent=1;resizeParentMax=0;resizeLast=0;collapsible=1;marginBottom=0;whiteSpace=wrap;html=1;" parent="1" vertex="1">
          <mxGeometry x="120" y="780" width="290" height="112" as="geometry" />
        </mxCell>
        <mxCell id="OqhiQJWQzmeeSXiI8pkJ-82" value="+ &lt;span style=&quot;text-wrap-mode: nowrap;&quot;&gt;manubrio&lt;/span&gt;: string" style="text;strokeColor=none;fillColor=none;align=left;verticalAlign=top;spacingLeft=4;spacingRight=4;overflow=hidden;rotatable=0;points=[[0,0.5],[1,0.5]];portConstraint=eastwest;whiteSpace=wrap;html=1;" parent="OqhiQJWQzmeeSXiI8pkJ-81" vertex="1">
          <mxGeometry y="26" width="290" height="26" as="geometry" />
        </mxCell>
        <mxCell id="OqhiQJWQzmeeSXiI8pkJ-83" value="" style="line;strokeWidth=1;fillColor=none;align=left;verticalAlign=middle;spacingTop=-1;spacingLeft=3;spacingRight=3;rotatable=0;labelPosition=right;points=[];portConstraint=eastwest;strokeColor=inherit;" parent="OqhiQJWQzmeeSXiI8pkJ-81" vertex="1">
          <mxGeometry y="52" width="290" height="8" as="geometry" />
        </mxCell>
        <mxCell id="OqhiQJWQzmeeSXiI8pkJ-84" value="+ &lt;span style=&quot;text-wrap-mode: nowrap;&quot;&gt;Moto&lt;/span&gt;(): void" style="text;strokeColor=none;fillColor=none;align=left;verticalAlign=top;spacingLeft=4;spacingRight=4;overflow=hidden;rotatable=0;points=[[0,0.5],[1,0.5]];portConstraint=eastwest;whiteSpace=wrap;html=1;" parent="OqhiQJWQzmeeSXiI8pkJ-81" vertex="1">
          <mxGeometry y="60" width="290" height="26" as="geometry" />
        </mxCell>
        <mxCell id="OqhiQJWQzmeeSXiI8pkJ-85" value="+&amp;nbsp;&lt;span style=&quot;text-wrap-mode: nowrap;&quot;&gt;TipoManubrio&lt;/span&gt;(): void" style="text;strokeColor=none;fillColor=none;align=left;verticalAlign=top;spacingLeft=4;spacingRight=4;overflow=hidden;rotatable=0;points=[[0,0.5],[1,0.5]];portConstraint=eastwest;whiteSpace=wrap;html=1;" parent="OqhiQJWQzmeeSXiI8pkJ-81" vertex="1">
          <mxGeometry y="86" width="290" height="26" as="geometry" />
        </mxCell>
        <mxCell id="OqhiQJWQzmeeSXiI8pkJ-86" style="edgeStyle=none;curved=1;rounded=0;orthogonalLoop=1;jettySize=auto;html=1;exitX=0.5;exitY=0;exitDx=0;exitDy=0;fontSize=12;startSize=8;endSize=8;entryX=0.51;entryY=1.188;entryDx=0;entryDy=0;entryPerimeter=0;" parent="1" source="OqhiQJWQzmeeSXiI8pkJ-87" target="OqhiQJWQzmeeSXiI8pkJ-11" edge="1">
          <mxGeometry relative="1" as="geometry">
            <mxPoint x="210" y="740" as="targetPoint" />
          </mxGeometry>
        </mxCell>
        <mxCell id="OqhiQJWQzmeeSXiI8pkJ-87" value="&lt;span style=&quot;font-weight: 400;&quot;&gt;Camioneta&lt;/span&gt;" style="swimlane;fontStyle=1;align=center;verticalAlign=top;childLayout=stackLayout;horizontal=1;startSize=26;horizontalStack=0;resizeParent=1;resizeParentMax=0;resizeLast=0;collapsible=1;marginBottom=0;whiteSpace=wrap;html=1;" parent="1" vertex="1">
          <mxGeometry x="430" y="780" width="290" height="164" as="geometry" />
        </mxCell>
        <mxCell id="OqhiQJWQzmeeSXiI8pkJ-88" value="+ &lt;span style=&quot;text-wrap-mode: nowrap;&quot;&gt;cantidadPuertas&lt;/span&gt;: int" style="text;strokeColor=none;fillColor=none;align=left;verticalAlign=top;spacingLeft=4;spacingRight=4;overflow=hidden;rotatable=0;points=[[0,0.5],[1,0.5]];portConstraint=eastwest;whiteSpace=wrap;html=1;" parent="OqhiQJWQzmeeSXiI8pkJ-87" vertex="1">
          <mxGeometry y="26" width="290" height="26" as="geometry" />
        </mxCell>
        <mxCell id="OqhiQJWQzmeeSXiI8pkJ-89" value="+ &lt;span style=&quot;text-wrap-mode: nowrap;&quot;&gt;es4x4&lt;/span&gt;: Boolean" style="text;strokeColor=none;fillColor=none;align=left;verticalAlign=top;spacingLeft=4;spacingRight=4;overflow=hidden;rotatable=0;points=[[0,0.5],[1,0.5]];portConstraint=eastwest;whiteSpace=wrap;html=1;" parent="OqhiQJWQzmeeSXiI8pkJ-87" vertex="1">
          <mxGeometry y="52" width="290" height="26" as="geometry" />
        </mxCell>
        <mxCell id="OqhiQJWQzmeeSXiI8pkJ-90" value="" style="line;strokeWidth=1;fillColor=none;align=left;verticalAlign=middle;spacingTop=-1;spacingLeft=3;spacingRight=3;rotatable=0;labelPosition=right;points=[];portConstraint=eastwest;strokeColor=inherit;" parent="OqhiQJWQzmeeSXiI8pkJ-87" vertex="1">
          <mxGeometry y="78" width="290" height="8" as="geometry" />
        </mxCell>
        <mxCell id="OqhiQJWQzmeeSXiI8pkJ-91" value="+&amp;nbsp;&lt;span style=&quot;text-align: center;&quot;&gt;Camioneta&lt;/span&gt;(): void" style="text;strokeColor=none;fillColor=none;align=left;verticalAlign=top;spacingLeft=4;spacingRight=4;overflow=hidden;rotatable=0;points=[[0,0.5],[1,0.5]];portConstraint=eastwest;whiteSpace=wrap;html=1;" parent="OqhiQJWQzmeeSXiI8pkJ-87" vertex="1">
          <mxGeometry y="86" width="290" height="26" as="geometry" />
        </mxCell>
        <mxCell id="OqhiQJWQzmeeSXiI8pkJ-92" value="+&amp;nbsp;&lt;span style=&quot;text-wrap-mode: nowrap;&quot;&gt;cantidadPuertas&lt;/span&gt;(): void" style="text;strokeColor=none;fillColor=none;align=left;verticalAlign=top;spacingLeft=4;spacingRight=4;overflow=hidden;rotatable=0;points=[[0,0.5],[1,0.5]];portConstraint=eastwest;whiteSpace=wrap;html=1;" parent="OqhiQJWQzmeeSXiI8pkJ-87" vertex="1">
          <mxGeometry y="112" width="290" height="26" as="geometry" />
        </mxCell>
        <mxCell id="OqhiQJWQzmeeSXiI8pkJ-93" value="+&amp;nbsp;&lt;span style=&quot;text-wrap-mode: nowrap;&quot;&gt;es4x4&lt;/span&gt;(): void" style="text;strokeColor=none;fillColor=none;align=left;verticalAlign=top;spacingLeft=4;spacingRight=4;overflow=hidden;rotatable=0;points=[[0,0.5],[1,0.5]];portConstraint=eastwest;whiteSpace=wrap;html=1;" parent="OqhiQJWQzmeeSXiI8pkJ-87" vertex="1">
          <mxGeometry y="138" width="290" height="26" as="geometry" />
        </mxCell>
        <mxCell id="OqhiQJWQzmeeSXiI8pkJ-94" style="edgeStyle=none;curved=1;rounded=0;orthogonalLoop=1;jettySize=auto;html=1;entryX=0.479;entryY=1.154;entryDx=0;entryDy=0;entryPerimeter=0;fontSize=12;startSize=8;endSize=8;" parent="1" source="OqhiQJWQzmeeSXiI8pkJ-74" target="OqhiQJWQzmeeSXiI8pkJ-11" edge="1">
          <mxGeometry relative="1" as="geometry" />
        </mxCell>
        <mxCell id="OqhiQJWQzmeeSXiI8pkJ-95" style="edgeStyle=none;curved=1;rounded=0;orthogonalLoop=1;jettySize=auto;html=1;exitX=0.5;exitY=0;exitDx=0;exitDy=0;entryX=0.469;entryY=1;entryDx=0;entryDy=0;entryPerimeter=0;fontSize=12;startSize=8;endSize=8;" parent="1" source="OqhiQJWQzmeeSXiI8pkJ-81" target="OqhiQJWQzmeeSXiI8pkJ-11" edge="1">
          <mxGeometry relative="1" as="geometry" />
        </mxCell>
      </root>
    </mxGraphModel>
  </diagram>
</mxfile>
